<?xml version="1.0" encoding="UTF-8" standalone="no"?>
<!-- Created with Inkscape (http://www.inkscape.org/) -->

<svg
   xmlns:dc="http://purl.org/dc/elements/1.1/"
   xmlns:cc="http://creativecommons.org/ns#"
   xmlns:rdf="http://www.w3.org/1999/02/22-rdf-syntax-ns#"
   xmlns:svg="http://www.w3.org/2000/svg"
   xmlns="http://www.w3.org/2000/svg"
   xmlns:sodipodi="http://sodipodi.sourceforge.net/DTD/sodipodi-0.dtd"
   xmlns:inkscape="http://www.inkscape.org/namespaces/inkscape"
   width="102.83002mm"
   height="40.166924mm"
   viewBox="0 0 364.35832 142.32374"
   id="svg2"
   version="1.1"
   inkscape:version="0.91 r13725"
   sodipodi:docname="compass-problem.svg">
  <defs
     id="defs4">
    <marker
       inkscape:stockid="Arrow1Mend"
       orient="auto"
       refY="0"
       refX="0"
       id="marker4553"
       style="overflow:visible"
       inkscape:isstock="true">
      <path
         id="path4555"
         d="M 0,0 5,-5 -12.5,0 5,5 0,0 Z"
         style="fill:#000000;fill-opacity:1;fill-rule:evenodd;stroke:#000000;stroke-width:1pt;stroke-opacity:1"
         transform="matrix(-0.4,0,0,-0.4,-4,0)"
         inkscape:connector-curvature="0" />
    </marker>
    <marker
       inkscape:stockid="Arrow1Mend"
       orient="auto"
       refY="0"
       refX="0"
       id="Arrow1Mend"
       style="overflow:visible"
       inkscape:isstock="true">
      <path
         id="path4161"
         d="M 0,0 5,-5 -12.5,0 5,5 0,0 Z"
         style="fill:#000000;fill-opacity:1;fill-rule:evenodd;stroke:#000000;stroke-width:1pt;stroke-opacity:1"
         transform="matrix(-0.4,0,0,-0.4,-4,0)"
         inkscape:connector-curvature="0" />
    </marker>
    <marker
       inkscape:stockid="Arrow1Mstart"
       orient="auto"
       refY="0"
       refX="0"
       id="Arrow1Mstart"
       style="overflow:visible"
       inkscape:isstock="true">
      <path
         id="path4158"
         d="M 0,0 5,-5 -12.5,0 5,5 0,0 Z"
         style="fill:#000000;fill-opacity:1;fill-rule:evenodd;stroke:#000000;stroke-width:1pt;stroke-opacity:1"
         transform="matrix(0.4,0,0,0.4,4,0)"
         inkscape:connector-curvature="0" />
    </marker>
  </defs>
  <sodipodi:namedview
     id="base"
     pagecolor="#ffffff"
     bordercolor="#666666"
     borderopacity="1.0"
     inkscape:pageopacity="0.0"
     inkscape:pageshadow="2"
     inkscape:zoom="2.8"
     inkscape:cx="173.95852"
     inkscape:cy="86.859253"
     inkscape:document-units="px"
     inkscape:current-layer="layer1"
     showgrid="false"
     fit-margin-top="1"
     fit-margin-left="1"
     fit-margin-right="1"
     fit-margin-bottom="1"
     inkscape:window-width="1680"
     inkscape:window-height="996"
     inkscape:window-x="0"
     inkscape:window-y="30"
     inkscape:window-maximized="1">
    <inkscape:grid
       type="xygrid"
       id="grid6915"
       originx="-42.781449"
       originy="-753.44097" />
  </sodipodi:namedview>
  <metadata
     id="metadata7">
    <rdf:RDF>
      <cc:Work
         rdf:about="">
        <dc:format>image/svg+xml</dc:format>
        <dc:type
           rdf:resource="http://purl.org/dc/dcmitype/StillImage" />
        <dc:title></dc:title>
      </cc:Work>
    </rdf:RDF>
  </metadata>
  <g
     inkscape:label="Layer 1"
     inkscape:groupmode="layer"
     id="layer1"
     transform="translate(-42.781452,-156.59746)">
    <circle
       style="opacity:1;fill:#888d93;fill-opacity:1;stroke:#c22627;stroke-width:1.50000012;stroke-linejoin:miter;stroke-miterlimit:4;stroke-dasharray:none;stroke-dashoffset:0;stroke-opacity:1"
       id="path4136"
       cx="147.07286"
       cy="214.72124"
       r="10.731286" />
    <g
       id="g4531">
      <path
         inkscape:connector-curvature="0"
         id="path4146"
         d="m 150.71429,281.44489 203.57142,0"
         style="fill:none;fill-rule:evenodd;stroke:#000000;stroke-width:2;stroke-linecap:butt;stroke-linejoin:miter;stroke-miterlimit:4;stroke-dasharray:none;stroke-opacity:1;marker-start:url(#Arrow1Mstart);marker-end:url(#Arrow1Mend)" />
      <path
         inkscape:connector-curvature="0"
         id="path4460"
         d="m 146.72466,275.38398 0,12.12183"
         style="fill:none;fill-rule:evenodd;stroke:#000000;stroke-width:1px;stroke-linecap:butt;stroke-linejoin:miter;stroke-opacity:1" />
      <path
         inkscape:connector-curvature="0"
         id="path4460-5"
         d="m 358.54551,275.38398 0,12.12183"
         style="fill:none;fill-rule:evenodd;stroke:#000000;stroke-width:1px;stroke-linecap:butt;stroke-linejoin:miter;stroke-opacity:1" />
    </g>
    <text
       xml:space="preserve"
       style="font-style:normal;font-variant:normal;font-weight:normal;font-stretch:normal;font-size:12.5px;line-height:125%;font-family:Cantarell;-inkscape-font-specification:Sans;text-align:start;letter-spacing:0px;word-spacing:0px;writing-mode:lr-tb;text-anchor:start;fill:#000000;fill-opacity:1;stroke:none;stroke-width:1px;stroke-linecap:butt;stroke-linejoin:miter;stroke-opacity:1"
       x="237.38583"
       y="295.2529"
       id="text4539"
       sodipodi:linespacing="125%"><tspan
         sodipodi:role="line"
         id="tspan4541"
         x="237.38583"
         y="295.2529">50 mm</tspan></text>
    <text
       xml:space="preserve"
       style="font-style:normal;font-variant:normal;font-weight:normal;font-stretch:normal;font-size:12.5px;line-height:125%;font-family:Cantarell;-inkscape-font-specification:Sans;text-align:start;letter-spacing:0px;word-spacing:0px;writing-mode:lr-tb;text-anchor:start;fill:#000000;fill-opacity:1;stroke:none;stroke-width:1px;stroke-linecap:butt;stroke-linejoin:miter;stroke-opacity:1"
       x="101.87201"
       y="168.79077"
       id="text4543"
       sodipodi:linespacing="125%"><tspan
         sodipodi:role="line"
         id="tspan4545"
         x="101.87201"
         y="168.79077"
         style="text-align:center;text-anchor:middle">Wire</tspan><tspan
         sodipodi:role="line"
         x="101.87201"
         y="184.41577"
         id="tspan4547"
         style="text-align:center;text-anchor:middle">(viewed from above)</tspan></text>
    <path
       style="fill:none;fill-rule:evenodd;stroke:#000000;stroke-width:1px;stroke-linecap:butt;stroke-linejoin:miter;stroke-opacity:1;marker-end:url(#marker4553)"
       d="m 99.464285,188.88006 c 2.232145,13.30357 18.851485,25.75314 26.941965,26.1384 l 4.21876,0.20089"
       id="path4551"
       inkscape:connector-curvature="0"
       sodipodi:nodetypes="csc" />
    <g
       transform="matrix(0.13226151,0,0,0.13226151,307.50585,135.94985)"
       id="g4227">
      <circle
         id="path3557"
         style="fill:#d40000;stroke:#000000;stroke-width:12.5021162"
         cx="379.61176"
         cy="600.31793"
         r="340.65698" />
      <circle
         id="path3588"
         style="fill:#999999;stroke:#000000;stroke-width:10.30270863"
         cx="379.75101"
         cy="600.43091"
         r="280.72766" />
      <circle
         id="path3590"
         style="fill:#cccccc;stroke:#000000;stroke-width:8.93709946"
         cx="379.68878"
         cy="600.37646"
         r="243.51761" />
      <circle
         id="path3594"
         style="fill:#ffffff;stroke:#000000;stroke-width:6.65764809"
         cx="379.75433"
         cy="600.43622"
         r="181.40723" />
      <g
         id="g3675"
         transform="matrix(4.1667547,-0.07273419,0.07273419,4.1667547,-1694.5894,-1176.9851)">
        <g
           id="g3661">
          <g
             id="g3611"
             transform="matrix(0,0.70017,-0.70017,0,795.26,92.935)">
            <rect
               id="rect3613"
               style="fill:#000000"
               transform="matrix(0.14588,0.9893,-0.14588,0.9893,0,0)"
               height="57.737"
               width="57.737"
               y="-1483.7"
               x="1866.3" />
            <path
               id="path3615"
               style="fill:#ffffff"
               d="m 488.63,379.42 -8.3438,56.531 8.3438,0 0,-56.531 z"
               inkscape:connector-curvature="0" />
            <path
               id="path3617"
               style="fill:#ffffff"
               d="m 488.78,492.78 8.3438,-56.531 -8.3438,0 0,56.531 z"
               inkscape:connector-curvature="0" />
          </g>
          <g
             id="g3619"
             transform="matrix(-0.4951,0.4951,-0.4951,-0.4951,947.89,408.85)">
            <rect
               id="rect3621"
               style="fill:#000000"
               transform="matrix(0.14588,0.9893,-0.14588,0.9893,0,0)"
               height="57.737"
               width="57.737"
               y="-1483.7"
               x="1866.3" />
            <path
               id="path3623"
               style="fill:#ffffff"
               d="m 488.63,379.42 -8.3438,56.531 8.3438,0 0,-56.531 z"
               inkscape:connector-curvature="0" />
            <path
               id="path3625"
               style="fill:#ffffff"
               d="m 488.78,492.78 8.3438,-56.531 -8.3438,0 0,56.531 z"
               inkscape:connector-curvature="0" />
          </g>
          <g
             id="g3627"
             transform="matrix(0.4951,0.4951,-0.4951,0.4951,463.96,-22.559)">
            <rect
               id="rect3629"
               style="fill:#000000"
               transform="matrix(0.14588,0.9893,-0.14588,0.9893,0,0)"
               height="57.737"
               width="57.737"
               y="-1483.7"
               x="1866.3" />
            <path
               id="path3631"
               style="fill:#ffffff"
               d="m 488.63,379.42 -8.3438,56.531 8.3438,0 0,-56.531 z"
               inkscape:connector-curvature="0" />
            <path
               id="path3633"
               style="fill:#ffffff"
               d="m 488.78,492.78 8.3438,-56.531 -8.3438,0 0,56.531 z"
               inkscape:connector-curvature="0" />
          </g>
        </g>
        <g
           id="g3655"
           transform="translate(1.1867,-3.6693)">
          <g
             id="g3649"
             transform="translate(-6,0)">
            <rect
               id="rect3592"
               style="fill:#000000"
               transform="matrix(0.14588,0.9893,-0.14588,0.9893,0,0)"
               height="57.737"
               width="57.737"
               y="-1503.8"
               x="1889.6" />
            <path
               id="path3640"
               style="fill:#ff2a2a"
               d="m 494.94,381.66 -2.25,15.312 c 0.77763,-0.0436 1.5553,-0.0937 2.3438,-0.0937 0.78766,0 1.567,0.019 2.3438,0.0625 l -2.25,-15.281 c -0.0315,-5e-5 -0.0623,0 -0.0937,0 -0.0315,0 -0.0623,-5e-5 -0.0937,0 z"
               inkscape:connector-curvature="0" />
          </g>
          <circle
             id="path3653"
             style="fill:#ff6600"
             transform="matrix(0.81034,0,0,0.81034,-3.543,65.074)"
             cx="607.85931"
             cy="461.17041"
             r="7.323606" />
        </g>
      </g>
      <text
         id="text3700"
         style="font-size:59.36461258px;line-height:125%;font-family:Arial;text-align:center;text-anchor:middle;fill:#000000"
         sodipodi:linespacing="125%"
         y="408.84283"
         x="375.94666"
         xml:space="preserve"><tspan
           id="tspan3702"
           y="408.84283"
           x="375.94666"
           sodipodi:role="line">N</tspan></text>
      <text
         id="text3704"
         style="font-size:59.36461258px;line-height:125%;font-family:Arial;text-align:center;text-anchor:middle;fill:#000000"
         xml:space="preserve"
         y="833.9176"
         x="375.94666"
         sodipodi:linespacing="125%"><tspan
           id="tspan3706"
           sodipodi:role="line"
           x="375.94666"
           y="833.9176">S</tspan></text>
      <text
         id="text3708"
         style="font-size:59.36461258px;line-height:125%;font-family:Arial;text-align:center;text-anchor:middle;fill:#000000"
         sodipodi:linespacing="125%"
         y="617.21283"
         x="592.65143"
         xml:space="preserve"><tspan
           id="tspan3710"
           y="617.21283"
           x="592.65143"
           sodipodi:role="line">E</tspan></text>
      <text
         id="text3712"
         style="font-size:59.36461258px;line-height:125%;font-family:Arial;text-align:center;text-anchor:middle;fill:#000000"
         xml:space="preserve"
         y="617.21283"
         x="167.57664"
         sodipodi:linespacing="125%"><tspan
           id="tspan3714"
           sodipodi:role="line"
           x="167.57664"
           y="617.21283">W</tspan></text>
      <path
         id="path3716"
         inkscape:transform-center-x="-77.476795"
         style="fill:#000000"
         d="m 718.28478,562.69619 c -18.84915,2.17696 -33.46964,18.20695 -33.46922,37.63662 0,19.42425 14.62799,35.45249 33.46922,37.63662 1.35708,-12.34467 2.0837,-24.9323 2.0837,-37.63662 0,-12.73391 -0.72037,-25.26403 -2.0837,-37.63662 z"
         inkscape:connector-curvature="0" />
      <path
         id="path3725"
         inkscape:transform-center-x="-68.52802"
         style="fill:#000000"
         inkscape:transform-center-y="-40.250058"
         d="m 654.10682,398.45895 c -15.23559,11.30991 -19.88183,32.50239 -10.16679,49.32952 9.71213,16.82171 30.39452,23.3887 47.80425,15.85987 -4.99713,-11.3695 -10.66146,-22.63398 -17.01383,-33.63633 -6.36695,-11.02819 -13.25566,-21.51921 -20.62279,-31.55264 z"
         inkscape:connector-curvature="0" />
      <path
         id="path3727"
         inkscape:transform-center-x="-40.249407"
         style="fill:#000000"
         inkscape:transform-center-y="-68.52849"
         d="m 516.37425,288.31457 c -7.53924,17.41223 -0.967,38.08879 15.85988,47.80425 16.82171,9.71212 38.01669,5.05797 49.32951,-10.16679 -10.01259,-7.34754 -20.55028,-14.27085 -31.55263,-20.6228 -11.02819,-6.36695 -22.23933,-12.00794 -33.63634,-17.01382 z"
         inkscape:connector-curvature="0" />
      <path
         id="path3729"
         style="fill:#000000"
         inkscape:transform-center-y="-77.476796"
         d="m 342.05191,261.76823 c 2.17701,18.84915 18.20696,33.46964 37.63662,33.46923 19.42426,0 35.45249,-14.62799 37.63704,-33.46923 -12.34467,-1.35711 -24.9323,-2.08374 -37.63662,-2.08374 -12.73391,0 -25.26403,0.72038 -37.63704,2.08374 z"
         inkscape:connector-curvature="0" />
      <path
         id="path3731"
         inkscape:transform-center-x="40.250057"
         style="fill:#000000"
         inkscape:transform-center-y="-68.528021"
         d="m 177.81468,325.94619 c 11.3099,15.2356 32.50238,19.88184 49.32951,10.16679 16.82171,-9.71212 23.3887,-30.39451 15.85988,-47.80424 -11.3695,4.99713 -22.63399,10.66187 -33.63634,17.01382 -11.02819,6.36696 -21.5192,13.25567 -31.55264,20.6228 z"
         inkscape:connector-curvature="0" />
      <path
         id="path3733"
         inkscape:transform-center-x="68.528492"
         style="fill:#000000"
         inkscape:transform-center-y="-40.249409"
         d="m 67.670296,463.67876 c 17.412647,7.53925 38.088784,0.96692 47.804244,-15.85987 9.71213,-16.82171 5.05797,-38.01669 -10.16679,-49.32951 -7.347541,10.01259 -14.270842,20.55028 -20.622793,31.55263 -6.366954,11.02819 -12.008363,22.23933 -17.013828,33.63634 z"
         inkscape:connector-curvature="0" />
      <path
         id="path3735"
         inkscape:transform-center-x="77.47679"
         style="fill:#000000"
         d="m 41.123958,638.00111 c 18.84915,-2.1771 33.46964,-18.20696 33.469223,-37.63704 -4.2e-5,-19.42426 -14.627991,-35.45249 -33.469223,-37.63704 -1.357072,12.34467 -2.0837,24.9323 -2.0837,37.63662 0,12.73391 0.720335,25.26403 2.0837,37.63704 z"
         inkscape:connector-curvature="0" />
      <path
         id="path3737"
         inkscape:transform-center-x="68.528027"
         style="fill:#000000"
         inkscape:transform-center-y="40.250059"
         d="m 105.30192,802.23834 c 15.23518,-11.30991 19.88183,-32.50239 10.16679,-49.32951 -9.71213,-16.82171 -30.394518,-23.3887 -47.804248,-15.85988 4.997129,11.3695 10.661876,22.63398 17.013827,33.63634 6.366954,11.02819 13.255666,21.5192 20.622791,31.55263 z"
         inkscape:connector-curvature="0" />
      <path
         id="path3739"
         inkscape:transform-center-x="40.249416"
         style="fill:#000000"
         inkscape:transform-center-y="68.528492"
         d="m 242.99281,912.38272 c 7.53925,-17.41265 0.96688,-38.08878 -15.85987,-47.80424 -16.82171,-9.71213 -38.01669,-5.05798 -49.32951,10.16679 10.01259,7.34754 20.55028,14.27084 31.55263,20.62279 11.02819,6.36695 22.23933,12.00836 33.63634,17.01383 z"
         inkscape:connector-curvature="0" />
      <path
         id="path3741"
         style="fill:#000000"
         inkscape:transform-center-y="77.476785"
         d="m 417.35683,938.92906 c -2.17713,-18.84915 -18.20695,-33.46922 -37.63704,-33.46964 -19.42425,8e-5 -35.45249,14.62799 -37.63662,33.46964 12.34467,1.35703 24.9323,2.08366 37.63662,2.08366 12.73391,0 25.26403,-0.7203 37.63704,-2.08366 z"
         inkscape:connector-curvature="0" />
      <path
         id="path3743"
         inkscape:transform-center-x="-40.250056"
         style="fill:#000000"
         inkscape:transform-center-y="68.528031"
         d="m 581.59406,874.7511 c -11.31032,-15.2356 -32.50238,-19.88183 -49.32951,-10.16679 -16.82171,9.71213 -23.3887,30.39452 -15.85987,47.80425 11.3695,-4.99713 22.63398,-10.66188 33.63633,-17.01383 11.02819,-6.36695 21.51921,-13.25567 31.55264,-20.6228 z"
         inkscape:connector-curvature="0" />
      <path
         id="path3745"
         inkscape:transform-center-x="-68.52849"
         style="fill:#000000"
         inkscape:transform-center-y="40.249421"
         d="m 691.73845,737.0602 c -17.41265,-7.53924 -38.08879,-0.96687 -47.80425,15.85988 -9.71213,16.82171 -5.05797,38.01669 10.16679,49.32951 7.34754,-10.01259 14.27084,-20.55028 20.6228,-31.55263 6.36695,-11.02819 12.00836,-22.23933 17.01382,-33.63634 z"
         inkscape:connector-curvature="0" />
    </g>
  </g>
</svg>
